# xmcd
#
# Track frame offsets: 
#        150
#        21440
#        43904
#        58322
#        90863
#        104804
#        121545
#        140968
#        160228
#        184563
#        198206
#        217921
#        234521
#        249745
#
# Disc length: 3600 seconds
#
# Revision: 0
# Processed by: cddbd v1.5.2PL0 Copyright (c) Steve Scherf et al.
# Submitted via: ExactAudioCopy v0.99pb5
#
DISCID=c60e0e0e
DTITLE=Mick Ryan and Paul Downes - Away in the West
DYEAR=2010
DGENRE=Folk
TTITLE0=The Pauper's Path
TTITLE1=The Bells Rang
TTITLE2=Summer Is A-Coming In
TTITLE3=Jack In Luck
TTITLE4=Greenland
TTITLE5=South Armagh
TTITLE6=The People Must Be Amused
TTITLE7=Love Is Life
TTITLE8=Vinland
TTITLE9=No Evil
TTITLE10=Upon A Field
TTITLE11=Fire Against The Cold
TTITLE12=How Wide's The Ocean?
TTITLE13=The Institute
EXTD=
EXTT0=
EXTT1=
EXTT2=
EXTT3=
EXTT4=
EXTT5=
EXTT6=
EXTT7=
EXTT8=
EXTT9=
EXTT10=
EXTT11=
EXTT12=
EXTT13=
PLAYORDER=
